HIERARCHY
ROOT Hips
{
	OFFSET 0.000000 0.000000 0.000000 
	CHANNELS 6 Xposition Yposition Zposition Zrotation Yrotation Xrotation
	JOINT LeftUpLeg
	{
		OFFSET 1.363060 -1.794630 0.839290 
		CHANNELS 3 Zrotation Yrotation Xrotation
		JOINT LeftLeg
		{
			OFFSET 2.448110 -6.726130 0.000000 
			CHANNELS 3 Zrotation Yrotation Xrotation
			JOINT LeftFoot
			{
				OFFSET 2.562200 -7.039590 0.000000 
				CHANNELS 3 Zrotation Yrotation Xrotation
				JOINT LeftToeBase
				{
					OFFSET 0.157640 -0.433110 2.322550 
					CHANNELS 3 Zrotation Yrotation Xrotation
					End Site
					{
						OFFSET 0.000000 0.000000 0.000000 
					}
				}
			}
		}
	}
	JOINT RightUpLeg
	{
		OFFSET -1.305520 -1.794630 0.839290 
		CHANNELS 3 Zrotation Yrotation Xrotation
		JOINT RightLeg
		{
			OFFSET -2.542530 -6.985550 0.000000 
			CHANNELS 3 Zrotation Yrotation Xrotation
			JOINT RightFoot
			{
				OFFSET -2.568260 -7.056230 0.000000 
				CHANNELS 3 Zrotation Yrotation Xrotation
				JOINT RightToeBase
				{
					OFFSET -0.164730 -0.452590 2.363150 
					CHANNELS 3 Zrotation Yrotation Xrotation
					End Site
					{
						OFFSET 0.000000 0.000000 0.000000 
					}
				}
			}
		}
	}
	JOINT Spine
	{
		OFFSET 0.028270 2.035590 -0.193380 
		CHANNELS 3 Zrotation Yrotation Xrotation
		JOINT Spine1
		{
			OFFSET 0.056720 2.048850 -0.042750 
			CHANNELS 3 Zrotation Yrotation Xrotation
			JOINT Neck1
			{
				OFFSET -0.054170 1.746240 0.172020 
				CHANNELS 3 Zrotation Yrotation Xrotation
				JOINT Head
				{
					OFFSET 0.104070 1.761360 -0.123970 
					CHANNELS 3 Zrotation Yrotation Xrotation
					End Site
					{
						OFFSET 0.000000 0.000000 0.000000 
					}
				}
			}
			JOINT LeftArm
			{
				OFFSET 3.362410 1.200890 -0.311210 
				CHANNELS 3 Zrotation Yrotation Xrotation
				JOINT LeftForeArm
				{
					OFFSET 4.983000 -0.000000 -0.000000 
					CHANNELS 3 Zrotation Yrotation Xrotation
					JOINT LeftHand
					{
						OFFSET 3.483560 -0.000000 -0.000000 
						CHANNELS 3 Zrotation Yrotation Xrotation
						JOINT LeftHandIndex1
						{
							OFFSET 0.715260 -0.000000 -0.000000 
							CHANNELS 3 Zrotation Yrotation Xrotation
							End Site
							{
								OFFSET 0.000000 0.000000 0.000000 
							}
						}
					}
				}
			}
			JOINT RightArm
			{
				OFFSET -3.136600 1.374050 -0.404650 
				CHANNELS 3 Zrotation Yrotation Xrotation
				JOINT RightForeArm
				{
					OFFSET -5.241900 -0.000000 -0.000000 
					CHANNELS 3 Zrotation Yrotation Xrotation
					JOINT RightHand
					{
						OFFSET -3.444170 -0.000000 -0.000000 
						CHANNELS 3 Zrotation Yrotation Xrotation
						JOINT RightHandIndex1
						{
							OFFSET -0.622530 -0.000000 -0.000000 
							CHANNELS 3 Zrotation Yrotation Xrotation
							End Site
							{
								OFFSET 0.000000 0.000000 0.000000 
							}
						}
					}
				}
			}
		}
	}
}
MOTION
Frames: 15
Frame Time: 0.041667
0.140735 17.819352 -14.672418 -1.504737 0.243513 6.566421 -13.931621 -0.002737 -17.631010 0.068864 7.354402 20.220959 -0.243070 2.875707 -0.689410 0.058800 1.564300 4.303000 20.697237 1.228306 -14.020525 -0.274058 -6.606430 18.769002 -0.352427 0.712619 -3.236636 -0.791200 -5.677900 15.852600 1.530554 -0.968101 -2.204256 0.849740 -0.780843 6.801340 2.402384 -0.006762 29.764156 0.330300 0.413000 11.423200 -99.418183 -4.495705 31.263560 10.105029 -21.225838 -2.098250 -0.008477 -0.715640 -6.968075 -7.125000 0.000000 0.000000 93.198465 2.110095 12.184641 -10.487042 22.725013 -2.438346 0.668273 0.950067 30.938970 7.125000 0.000000 0.000000 
0.143369 17.819149 -14.667048 -1.542724 0.188239 6.607262 -13.913592 0.008265 -17.519600 0.025326 7.249099 19.929684 -0.189797 2.613670 -0.352105 0.057000 1.540700 4.237800 20.728526 1.265161 -14.025920 -0.270968 -6.603094 18.753209 -0.354296 0.723237 -3.237787 -0.791100 -5.677700 15.852100 1.531187 -0.899738 -2.208660 0.831915 -0.743244 6.801261 2.427951 -0.066858 29.735695 0.333100 0.387600 11.416900 -99.450623 -4.333807 32.184492 10.241867 -21.450988 -2.120737 -0.007682 -0.731665 -7.087662 -7.125000 0.000000 0.000000 93.121380 2.167515 12.009123 -10.408923 22.603636 -2.405198 0.670287 0.952680 31.121806 7.125000 0.000000 0.000000 
0.147524 17.819149 -14.661881 -1.590929 0.137040 6.641589 -13.900709 0.059961 -17.387513 -0.020117 7.133607 19.610638 -0.153218 2.434943 0.037926 0.060900 1.592500 4.380700 20.767030 1.296625 -14.045834 -0.273054 -6.615035 18.778776 -0.359767 0.753393 -3.260890 -0.794000 -5.687800 15.881100 1.537541 -0.851338 -2.208323 0.837190 -0.717108 6.816374 2.472047 -0.100801 29.665051 0.352800 0.372000 11.377800 -99.504895 -4.208957 32.787163 10.496662 -21.867642 -2.210764 0.009443 -0.738757 -7.735501 -7.125000 0.000000 0.000000 93.036003 2.295789 11.733738 -10.302075 22.435003 -2.362143 0.674806 0.950055 31.382744 7.125000 0.000000 0.000000 
0.154616 17.817629 -14.654687 -1.588841 0.066884 6.691447 -13.969682 0.185023 -17.253316 -0.060675 7.019670 19.291397 -0.184525 2.592849 0.090260 0.067300 1.673300 4.603700 20.740745 1.235272 -14.117243 -0.274779 -6.625358 18.800731 -0.379632 0.879220 -3.246838 -0.787500 -5.665000 15.815400 1.536646 -0.801364 -2.215624 0.843933 -0.691794 6.825474 2.471578 -0.134386 29.635002 0.341400 0.359500 11.368100 -99.520569 -4.036767 33.399764 10.683868 -22.173510 -2.294123 0.016744 -0.737183 -8.073795 -7.125000 0.000000 0.000000 92.954630 2.406524 11.548981 -10.216375 22.298597 -2.326489 0.679634 0.949222 31.573779 7.125000 0.000000 0.000000 
0.160999 17.816616 -14.647290 -1.614650 -0.003521 6.737168 -14.002577 0.300984 -17.116452 -0.103764 6.898883 18.955689 -0.195418 2.650967 0.224532 0.067900 1.680600 4.623700 20.747798 1.210387 -14.171455 -0.277283 -6.638457 18.829866 -0.394915 0.974216 -3.252124 -0.782600 -5.647600 15.765300 1.539493 -0.752324 -2.221707 0.851093 -0.666383 6.834884 2.488395 -0.166201 29.599826 0.341900 0.347100 11.354100 -99.544130 -3.870369 34.017406 10.878793 -22.488821 -2.371077 0.024312 -0.739685 -8.452727 -7.125000 0.000000 0.000000 92.865436 2.505643 11.375175 -10.134642 22.169078 -2.293215 0.683371 0.948466 31.760039 7.125000 0.000000 0.000000 
0.167990 17.815400 -14.639387 -1.649890 -0.077039 6.783556 -14.033483 0.449945 -16.981095 -0.146945 6.772700 18.604969 -0.216632 2.760052 0.305238 0.065600 1.652200 4.545400 20.763820 1.179791 -14.228525 -0.280068 -6.652351 18.860801 -0.411068 1.075339 -3.258932 -0.776600 -5.626600 15.704800 1.544281 -0.707904 -2.228650 0.863990 -0.643866 6.844692 2.503953 -0.191388 29.570736 0.341800 0.338100 11.344200 -99.561713 -3.701051 34.598830 11.069579 -22.796134 -2.450537 0.031202 -0.740740 -8.821952 -7.125000 0.000000 0.000000 92.771258 2.608149 11.229705 -10.060054 22.049955 -2.262905 0.687071 0.947439 31.924736 7.125000 0.000000 0.000000 
0.175590 17.813982 -14.630978 -1.699422 -0.149309 6.828098 -14.054360 0.625383 -16.857084 -0.188412 6.646861 18.255805 -0.242385 2.890794 0.346724 0.060100 1.581900 4.351600 20.795464 1.148868 -14.273507 -0.280695 -6.660034 18.874572 -0.425376 1.165546 -3.260494 -0.769800 -5.602500 15.635400 1.551568 -0.668436 -2.236505 0.882286 -0.623953 6.851918 2.519708 -0.213001 29.548934 0.341700 0.331100 11.339100 -99.574983 -3.531821 35.156655 11.246343 -23.079515 -2.525748 0.036675 -0.741292 -9.144127 -7.125000 0.000000 0.000000 92.673562 2.711053 11.117191 -9.994809 21.944766 -2.236496 0.690409 0.946571 32.061633 7.125000 0.000000 0.000000 
0.183695 17.812867 -14.622467 -1.763709 -0.213592 6.866055 -14.061354 0.816660 -16.740967 -0.227730 6.523816 17.914940 -0.266997 3.015602 0.374273 0.052500 1.478300 4.065900 20.843955 1.116111 -14.299939 -0.279212 -6.661127 18.870939 -0.436606 1.237914 -3.260156 -0.762400 -5.576200 15.559600 1.561226 -0.636050 -2.243328 0.903374 -0.607751 6.861930 2.540565 -0.232777 29.530955 0.344200 0.325400 11.336600 -99.584497 -3.377521 35.684476 11.405510 -23.333614 -2.593975 0.040855 -0.741837 -9.435921 -7.125000 0.000000 0.000000 92.577619 2.823627 11.020274 -9.935710 21.848376 -2.212562 0.693501 0.945739 32.181857 7.125000 0.000000 0.000000 
0.192004 17.811955 -14.614260 -1.840592 -0.263236 6.895500 -14.051515 1.005182 -16.635456 -0.263737 6.408565 17.596582 -0.286274 3.114351 0.403341 0.044100 1.355600 3.727800 20.907035 1.087430 -14.302726 -0.275252 -6.653915 18.844834 -0.442631 1.277922 -3.255957 -0.755000 -5.549500 15.482600 1.572870 -0.612442 -2.247862 0.926273 -0.595960 6.876736 2.565300 -0.252891 29.516736 0.348300 0.320000 11.337000 -99.588859 -3.251426 36.179820 11.542302 -23.551447 -2.653209 0.044897 -0.742171 -9.682526 -7.125000 0.000000 0.000000 92.488674 2.951130 10.929748 -9.883601 21.761900 -2.191452 0.696620 0.944701 32.292456 7.125000 0.000000 0.000000 
0.200616 17.811651 -14.606357 -1.919206 -0.295798 6.911439 -14.033692 1.177739 -16.532139 -0.294941 6.305747 17.313857 -0.299760 3.183508 0.434751 0.037800 1.255000 3.450700 20.972372 1.057175 -14.276577 -0.268726 -6.638055 18.796346 -0.443484 1.285161 -3.249310 -0.746800 -5.519900 15.397400 1.584857 -0.598333 -2.250037 0.949176 -0.589192 6.895654 2.597268 -0.275301 29.505528 0.355700 0.314100 11.339000 -99.589161 -3.156244 36.636061 11.649091 -23.721522 -2.699680 0.048199 -0.742396 -9.886074 -7.125000 0.000000 0.000000 92.413021 3.098849 10.815937 -9.829853 21.671330 -2.169486 0.700163 0.943235 32.425009 7.125000 0.000000 0.000000 
0.209228 17.812057 -14.598960 -1.994964 -0.308415 6.914133 -14.008273 1.319041 -16.431280 -0.320732 6.218853 17.076250 -0.307418 3.224087 0.467465 0.032700 1.167900 3.210900 21.034860 1.034781 -14.223232 -0.260661 -6.615748 18.731428 -0.437482 1.247996 -3.247072 -0.737500 -5.486400 15.301400 1.596095 -0.593621 -2.250039 0.970260 -0.587101 6.915877 2.639709 -0.302091 29.496195 0.367900 0.306800 11.342500 -99.582949 -3.097203 37.049606 11.720396 -23.835458 -2.730809 0.050338 -0.742516 -10.032986 -7.125000 0.000000 0.000000 92.356478 3.265664 10.677408 -9.775949 21.578868 -2.147353 0.704222 0.941005 32.577827 7.125000 0.000000 0.000000 
0.217739 17.813272 -14.592374 -2.055193 -0.299921 6.904781 -13.987430 1.424849 -16.333718 -0.341545 6.148153 16.884055 -0.308237 3.230161 0.503638 0.029200 1.102500 3.030800 21.080478 1.023401 -14.149918 -0.252322 -6.591123 18.661609 -0.424820 1.165698 -3.255504 -0.726400 -5.445900 15.184900 1.605316 -0.598820 -2.248885 0.992094 -0.590577 6.932965 2.692327 -0.331081 29.486511 0.384900 0.299000 11.346000 -99.571258 -3.077801 37.413964 11.752374 -23.887392 -2.744657 0.051153 -0.742449 -10.121624 -7.125000 0.000000 0.000000 92.320185 3.447973 10.511329 -9.721805 21.483709 -2.124834 0.708873 0.938180 32.756526 7.125000 0.000000 0.000000 
0.225946 17.814792 -14.586498 -2.091785 -0.267043 6.884699 -13.980009 1.496244 -16.240879 -0.358291 6.091892 16.732484 -0.301005 3.196812 0.547280 0.027000 1.060000 2.913900 21.100991 1.025707 -14.065583 -0.245625 -6.569321 18.600911 -0.405251 1.035770 -3.282671 -0.713200 -5.397200 15.045000 1.611935 -0.615065 -2.247304 1.018108 -0.600524 6.944123 2.755581 -0.364175 29.471664 0.407200 0.289500 11.345800 -99.553724 -3.098993 37.722725 11.740903 -23.871538 -2.739595 0.050486 -0.742096 -10.142258 -7.125000 0.000000 0.000000 92.304373 3.644039 10.318595 -9.666898 21.385302 -2.101824 0.713931 0.934778 32.954016 7.125000 0.000000 0.000000 
0.233545 17.816413 -14.581229 -2.097271 -0.210366 6.859147 -13.997465 1.547706 -16.158669 -0.372425 6.045861 16.609496 -0.284358 3.117549 0.603112 0.025600 1.032400 2.838100 21.088654 1.041784 -13.983175 -0.242243 -6.555861 18.564041 -0.380133 0.865656 -3.336824 -0.698200 -5.341300 14.884600 1.615277 -0.641787 -2.245370 1.050405 -0.617123 6.953609 2.826124 -0.398983 29.451889 0.433400 0.279400 11.342300 -99.531035 -3.160151 37.969000 11.687705 -23.790726 -2.716772 0.048627 -0.741348 -10.096237 -7.125000 0.000000 0.000000 92.309664 3.852283 10.100651 -9.612642 21.285455 -2.078811 0.719281 0.931081 33.164205 7.125000 0.000000 0.000000 
0.240536 17.817731 -14.576467 -2.073622 -0.135100 6.830737 -14.041422 1.594664 -16.088775 -0.385254 6.005925 16.503886 -0.260248 3.000868 0.669896 0.024500 1.009500 2.775000 21.046085 1.075641 -13.908959 -0.243123 -6.554297 18.560021 -0.350185 0.661119 -3.421803 -0.681900 -5.279800 14.708500 1.615667 -0.676133 -2.243286 1.091021 -0.638881 6.962821 2.905293 -0.436684 29.422754 0.464500 0.267500 11.330600 -99.505193 -3.254798 38.147137 11.597424 -23.652709 -2.678557 0.045828 -0.740209 -9.981628 -7.125000 0.000000 0.000000 92.334898 4.069298 9.855890 -9.558908 21.184668 -2.055697 0.724827 0.927177 33.381594 7.125000 0.000000 0.000000 
